<svg fill="red" xmlns="http://www.w3.org/2000/svg" data-name="Layer 1" viewBox="0 0 95 118.75" x="0px" y="0px"><path class="cls-1" d="M92.34,10.631,50.14,83.723h0A4.5,4.5,0,0,1,41.8,82.2L38,59.287l-6.819,3.276a2.772,2.772,0,0,1-3.736-3.639l7.467-16.648L4.157,17.01A4.5,4.5,0,0,1,7.016,9.023v0h84.43a1.051,1.051,0,0,1,.894,1.6Zm-54.695,46.5L35.734,45.586l-6.367,14.2a.684.684,0,0,0-.053.409.712.712,0,0,0,.557.54.678.678,0,0,0,.405-.063l7.369-3.539ZM88.575,12.95,37.358,42.52l6.516,39.345a2.392,2.392,0,0,0,4.447.8h0L88.575,12.95ZM36.305,40.7,87.522,11.128H7.016v0a2.391,2.391,0,0,0-1.524,4.254Z"/></svg>